<svg width="33" height="33" viewBox="0 0 33 33" fill="none" xmlns="http://www.w3.org/2000/svg">
<path d="M2.29771 32.0468H15.7394L29.5281 32.0469C30.5687 32.0469 31.566 30.9315 31.566 30.1592V13.0847C31.566 12.6557 31.6961 12.6557 31.8695 12.527C32.0083 12.424 32.043 12.2553 32.043 12.1838V9.60974C32.043 9.23221 31.6672 9.13783 31.4793 9.13783H5.98524C5.95682 9.13783 5.93013 9.12418 5.9135 9.10114L5.58764 8.64977C5.54977 8.59731 5.57581 8.52391 5.63936 8.51173C14.0378 6.90159 30.7015 3.70604 31.2191 3.60362C31.7394 3.50066 31.7828 3.01731 31.7394 2.78851C31.566 2.08776 31.2018 0.609048 31.1324 0.300162C31.063 -0.00872404 30.5543 0.0284567 30.3086 0.0856578C20.9861 1.87319 2.1156 5.49116 1.2137 5.66277C0.311803 5.83437 0.0574222 6.36348 0.0429688 6.60659V12.2266C0.0429688 12.4676 0.288045 12.6161 0.455463 12.6778C0.492987 12.6916 0.519934 12.7245 0.519934 12.7644V30.1162C0.519934 31.4204 1.69067 32.0468 2.29771 32.0468Z" fill="black" stroke="white" stroke-width="0.088483"/>
<ellipse cx="1.21134" cy="11.2375" rx="0.476965" ry="0.471909" fill="#D2D2D2"/>
<ellipse cx="5.63321" cy="11.2375" rx="0.476965" ry="0.471909" fill="#D2D2D2"/>
<ellipse cx="1.21134" cy="7.29222" rx="0.476965" ry="0.471909" fill="#D2D2D2"/>
<path d="M0.5625 12.7422L31.5218 12.7422" stroke="#868686" stroke-width="0.088483" stroke-linecap="round"/>
<path d="M9.49567 9.14062L7.4375 12.7014H10.6664L12.6756 9.14062H9.49567Z" fill="#E9E0D2"/>
<path d="M15.6871 9.14062L13.6289 12.7014H16.8578L18.867 9.14062H15.6871Z" fill="#E9E0D2"/>
<path d="M21.8785 9.14062L19.8203 12.7014H23.0492L25.0584 9.14062H21.8785Z" fill="#E9E0D2"/>
<path d="M28.0738 9.14062L26.0156 12.7014H29.2445L31.2537 9.14062H28.0738Z" fill="#E9E0D2"/>
<path d="M7.15625 29.2188H25.0641" stroke="#E9E0D2" stroke-width="0.088483"/>
<mask id="mask0_1741_181" style="mask-type:alpha" maskUnits="userSpaceOnUse" x="0" y="0" width="33" height="33">
<path d="M2.29771 32.0468H15.7394L29.5281 32.0469C30.5687 32.0469 31.566 30.9315 31.566 30.1592V13.0847C31.566 12.6557 31.6961 12.6557 31.8695 12.527C32.0083 12.424 32.043 12.2553 32.043 12.1838V9.60974C32.043 9.23221 31.6672 9.13783 31.4793 9.13783H5.98524C5.95682 9.13783 5.93013 9.12418 5.9135 9.10114L5.58764 8.64977C5.54977 8.59731 5.57581 8.52391 5.63936 8.51173C14.0378 6.90159 30.7015 3.70604 31.2191 3.60362C31.7394 3.50066 31.7828 3.01731 31.7394 2.78851C31.566 2.08776 31.2018 0.609048 31.1324 0.300162C31.063 -0.00872404 30.5543 0.0284567 30.3086 0.0856578C20.9861 1.87319 2.1156 5.49116 1.2137 5.66277C0.311803 5.83437 0.0574222 6.36348 0.0429688 6.60659V12.2266C0.0429688 12.4676 0.288045 12.6161 0.455463 12.6778C0.492987 12.6916 0.519934 12.7245 0.519934 12.7644V30.1162C0.519934 31.4204 1.69067 32.0468 2.29771 32.0468Z" fill="black"/>
</mask>
<g mask="url(#mask0_1741_181)">
<path d="M7.95942 4.22887L6.66658 8.40186L9.8386 7.80493L11.0833 3.641L7.95942 4.22887Z" fill="#E9E0D2"/>
<path d="M14.0454 3.08825L12.7525 7.26124L15.9245 6.6643L17.1692 2.50037L14.0454 3.08825Z" fill="#E9E0D2"/>
<path d="M20.1274 1.93981L18.8345 6.1128L22.0066 5.51586L23.2513 1.35193L20.1274 1.93981Z" fill="#E9E0D2"/>
<path d="M26.2094 0.799186L24.9166 4.97218L28.0886 4.37524L29.3333 0.211309L26.2094 0.799186Z" fill="#E9E0D2"/>
</g>
</svg>
